<svg width="250" height="250" viewBox="0 0 250 250" fill="none" xmlns="http://www.w3.org/2000/svg">
<path d="M195.312 109.107C182.57 109.107 174.639 117.471 172.267 121.653C169.917 125.657 176.698 136.015 194.903 136.015C213.109 136.015 217.166 131.957 218.234 127.472C219.302 122.988 211.24 109.107 195.312 109.107Z" fill="#FF6723"/>
<path d="M222.111 148.437C222.111 135.403 210.426 129.11 202.235 129.11C193.375 129.11 187.057 134.493 185.005 137.184C187.805 145.923 194.094 165.587 196.852 174.326C200.299 185.25 204.329 187.58 208.019 189.862C211.708 192.144 213.942 190.348 213.942 187.143V181.948C213.942 168.597 222.111 166.995 222.111 148.437Z" fill="#00A6ED"/>
<path d="M78.9063 163.367C74.1601 163.367 70.3125 167.215 70.3125 171.961V225.191C70.3125 229.937 74.1601 233.785 78.9062 233.785H100.781C105.527 233.785 109.375 229.937 109.375 225.191V171.961C109.375 167.215 105.527 163.367 100.781 163.367H78.9063Z" fill="#433B6B"/>
<path d="M153.11 170.951C148.364 170.951 144.516 174.798 144.516 179.544V225.191C144.516 229.937 148.364 233.785 153.11 233.785H174.985C179.731 233.785 183.579 229.937 183.579 225.191V179.544C183.579 174.798 179.731 170.951 174.985 170.951H153.11Z" fill="#433B6B"/>
<path d="M57.3908 209.14C58.0843 208.009 58.4718 206.818 58.7793 205.421H89.7215C90.0356 205.669 90.9314 206.393 92.0025 207.305C93.3414 208.446 93.7501 209.586 93.7501 211.917V224.76C93.7501 229.272 91.1595 233.785 85.5066 233.785H64.8785C59.771 233.785 56.4983 228.776 56.4983 223.768V213.157C56.4983 211.619 56.4487 210.677 57.3908 209.14Z" fill="#8D65C5"/>
<path d="M198.515 213.202C198.515 211.043 198.275 210.906 197.247 209.946L193.854 205.079H166.915C166.915 208.507 163.693 211.283 162.117 211.283C160.54 211.283 160.574 212.311 160.574 214.573V223.964C160.574 229.996 164.036 233.904 170.651 233.904H189.193C197.042 233.904 198.515 227.871 198.515 224.718V213.202Z" fill="#8D65C5"/>
<path d="M78.125 24.1224C78.125 19.8076 81.6228 16.3099 85.9375 16.3099H90.3975C94.7123 16.3099 98.21 19.8077 98.21 24.1224V39.5762C98.21 43.8909 94.7123 47.3887 90.3975 47.3887H85.9375C81.6228 47.3887 78.125 43.8909 78.125 39.5762V24.1224Z" fill="#608842"/>
<path d="M57.3414 177.839L59.3009 167.409L70.3125 165.458H189.316C191.285 168.344 195.457 174.476 196.395 175.919C197.568 177.723 198.199 179.211 198.199 181.646V198.286C198.199 202.399 199.408 205.586 200.012 206.665C201.337 208.758 200.931 209.778 199.005 210.541C197.87 210.99 196.076 211.609 194.153 211.609C188.965 211.609 187.927 208.588 187.073 207.672C186.218 206.757 185.272 207.031 184.814 207.672C182.922 210.388 180.786 211.351 178.131 211.351C175.476 211.351 173.492 210.419 171.539 207.957C170.288 206.482 169.797 206.55 168.718 207.957C166.282 211.13 163.92 211.351 162.481 211.351C161.042 211.351 160.415 210.687 160.415 208.805V194.857C160.415 188.325 157.979 186.31 151.263 186.31H101.562C94.1162 186.31 93.75 191.467 93.75 195.007V206.451C93.75 207.52 93.75 208.679 92.7734 207.825C91.7969 206.97 91.4001 206.909 89.9658 208.191C88.5315 209.473 86.792 211.456 83.2214 211.456C79.6509 211.456 78.186 209.32 77.179 208.191L77.1396 208.147C76.155 207.042 75.5122 206.321 74.0967 208.008C72.6624 209.717 71.1975 211.456 67.5659 211.456C63.9343 211.456 62.1338 209.198 61.0352 207.672C59.9365 206.146 59.082 206.787 58.4106 208.008C57.7393 209.228 56.9458 209.747 55.9998 208.527C55.0537 207.306 54.6875 205.17 54.6875 203.125C54.6875 199.772 56.4565 197.117 56.4565 190.164V182.326C56.4565 179.596 57.0464 178.197 57.3414 177.839Z" fill="#00A6ED"/>
<path d="M56.4447 151.695C56.4447 149.341 56.4447 148.031 57.1751 146.42C60.2212 139.701 61.1517 137.521 64.0328 133.687H187.971C188.689 134.616 190.875 137.494 193.878 141.571C197.632 146.667 198.212 148.712 198.395 153.168C198.578 157.623 198.212 167.297 198.212 170.532C198.212 173.767 199.219 175.537 199.951 176.544C200.684 177.551 200.989 178.314 199.951 178.803C198.914 179.291 197.601 179.901 193.756 179.901C189.911 179.901 187.805 176.91 186.981 176.025C186.157 175.14 185.211 175.415 184.723 176.025C182.922 178.284 180.847 179.901 177.704 179.901C174.561 179.901 172.394 177.826 171.082 175.873C170.41 174.957 169.787 175.001 169.128 175.873C167.999 177.368 166.077 179.901 162.781 179.901C159.485 179.901 157.074 178.131 155.731 176.422C154.694 175.262 154.128 175.154 152.954 176.422L152.892 176.49C151.383 178.12 149.734 179.901 146.393 179.901C143.005 179.901 141.571 178.07 140.015 176.422C138.641 174.896 138.19 175.198 137.146 176.422C135.559 178.284 134.308 179.901 130.585 179.901C126.862 179.901 125.488 178.162 123.993 176.204C123.077 175.049 122.414 175.092 121.552 176.204C119.11 179.352 117.279 179.688 114.624 179.688C111.603 179.688 110.694 178.952 108.185 176.204C107.178 175.101 106.706 175.158 105.774 176.204C103.821 178.397 102.142 179.688 98.999 179.688C95.8645 179.688 94.6722 178.413 92.9104 176.53L92.8955 176.514C91.98 175.537 91.2177 174.897 90.0879 176.204C88.562 177.97 86.6394 179.688 83.5266 179.688C80.4138 179.688 78.3081 177.908 76.9366 176.204C76.2873 175.474 75.2885 175.324 74.4613 176.204C73.2034 177.543 71.2151 179.897 67.6036 179.897C63.9922 179.897 62.2068 177.259 61.1517 176.204C60.0967 175.149 59.2446 175.311 58.7171 176.204C58.1895 177.097 58.149 177.259 57.662 177.908C57.1751 178.558 57.1751 178.355 56.4447 177.908C55.7143 177.056 54.6875 176.732 54.6875 173.648C54.6875 170.239 56.4447 167.155 56.4447 163.057V151.695Z" fill="#FF6DC6"/>
<path d="M56.4005 119.49C56.4027 119.787 56.4052 120.114 56.4052 120.478V128.108C56.4052 132.818 56.0738 134.064 55.6326 135.723C55.4739 136.319 55.3011 136.97 55.1243 137.853C54.456 141.195 54.6231 143.979 55.5141 145.873C56.3421 147.632 57.074 146.747 57.665 146.032C57.7099 145.978 57.7541 145.924 57.7974 145.873C57.899 145.753 58.0083 145.591 58.128 145.414C58.7301 144.525 59.5966 143.245 61.0832 144.87C62.8652 146.82 64.3689 148.437 67.7103 148.437C70.7597 148.437 72.7887 146.348 73.9243 145.179C74.033 145.066 74.1336 144.963 74.2261 144.87C75.2842 143.812 75.9299 143.72 76.9273 144.87C76.9727 144.923 77.0201 144.978 77.0694 145.035C78.1018 146.236 79.9951 148.437 83.535 148.437C86.9819 148.437 88.8675 146.221 89.8173 145.105C89.8895 145.02 89.9564 144.941 90.018 144.87C90.8908 143.87 91.5453 143.689 92.6985 144.87C92.8365 145.012 92.9824 145.17 93.1386 145.34C94.2881 146.588 95.991 148.437 99.1192 148.437C102.306 148.437 104.139 146.524 105.337 145.272C105.475 145.128 105.605 144.993 105.727 144.87C106.911 143.683 107.566 144.094 108.376 144.87C108.476 144.966 108.598 145.093 108.74 145.241C109.75 146.293 111.808 148.437 114.703 148.437C118.007 148.437 120.189 146.307 121.498 144.87C122.807 143.433 123.493 144.157 124.116 144.87C124.135 144.891 124.154 144.914 124.176 144.939C124.88 145.749 127.216 148.437 130.755 148.437C133.983 148.437 135.697 146.573 136.848 145.321C136.997 145.159 137.137 145.007 137.269 144.87C138.423 143.683 138.859 143.783 139.981 144.87C140.155 145.038 140.339 145.24 140.541 145.46C141.646 146.665 143.271 148.437 146.433 148.437C150.173 148.437 152.293 145.678 153.01 144.68C153.726 143.683 154.412 143.153 155.597 144.68C156.781 146.207 158.745 148.437 162.454 148.437C165.668 148.437 167.571 146.155 168.468 145.079C168.606 144.913 168.72 144.776 168.812 144.68C169.498 143.963 170.433 143.371 171.461 144.68C172.49 145.989 174.547 148.437 177.944 148.437C180.916 148.437 183.005 146.255 184.108 145.103C184.266 144.938 184.404 144.794 184.521 144.68C185.456 143.776 186.391 143.807 187.264 144.867C187.36 144.985 187.463 145.123 187.576 145.275C188.485 146.501 190.095 148.67 195.056 148.67C198.152 148.67 199.753 147.609 199.918 146.55C200.012 145.953 199.429 145.303 198.684 144.471C198.37 144.12 198.027 143.736 197.693 143.311C196.648 141.979 195.769 140.519 194.834 138.967C194.033 137.637 193.191 136.239 192.169 134.796C191.591 133.98 190.972 133.157 190.302 132.34C193.828 130.498 197.94 129.11 202.235 129.11C209.755 129.11 220.22 134.414 221.884 145.369C222.62 142.71 222.739 139.606 222.739 136.285C222.739 126.398 213.287 117.493 202.332 117.493C195.175 117.493 188.255 120.562 184.612 126.884C179.504 123.117 172.251 120.33 161.23 120.33H138.081C131.474 120.33 128.262 118.464 125.137 116.648C124.797 116.451 124.458 116.254 124.116 116.06C123.563 115.712 123.119 115.398 122.742 115.13C121.334 114.133 120.848 113.789 119.03 114.79C116.725 116.06 112.304 115.014 112.304 109.375C107.788 109.38 77.7147 109.377 63.2426 109.375C59.7618 109.375 58.8627 111.276 57.4076 114.463C56.3797 116.715 56.3843 117.332 56.4005 119.49Z" fill="#F8312F"/>
<path d="M36.1044 83.9032V75.9664L38.178 76.8738H104.187C106.252 78.9591 110.651 83.4045 111.725 84.5032C113.068 85.8764 113.342 85.8459 113.342 88.0127V93.75C113.342 107.422 120.148 110.657 121.582 111.694C123.016 112.732 122.558 113.255 121.582 114.136C120.605 115.016 118.622 116.973 115.173 116.973C111.725 116.973 110.29 115.112 108.459 113.255C107.452 112.183 106.656 112.177 105.713 113.255C103.961 115.257 102.352 116.973 99.1702 116.973C96.0014 116.973 94.3928 115.201 92.6493 113.279L92.6276 113.255C91.7339 112.29 90.7699 112.34 90.0178 113.255C88.3732 115.257 86.3711 116.795 83.2607 116.795C80.1503 116.795 78.184 114.471 77.2545 113.613C76.3249 112.755 75.8959 111.468 74.3944 113.255C72.8928 115.043 70.4617 116.973 67.7088 116.973C64.9559 116.973 62.7036 115.186 61.202 113.613C59.7005 112.04 58.7709 112.719 58.2704 113.255C57.7699 113.792 56.7688 116.473 55.3745 114.113C53.9802 111.754 55.5175 103.567 55.875 99.5981C56.2326 95.6297 56.0181 92.3763 49.118 91.3038C42.218 90.2312 39.2863 87.8716 38.178 87.1923C37.0697 86.5131 36.5692 85.9053 37.177 85.6193C37.7848 85.3333 36.1044 85.1188 36.1044 83.9032Z" fill="#FF8101"/>
<path d="M75.3615 44.6183H103.668C105.794 46.6218 110.364 50.9826 111.633 52.3986C113.22 54.1687 113.281 54.8377 113.281 56.6011V76.7822C113.281 80.3833 113.892 82.5805 114.349 83.4045L114.357 83.4188C114.817 84.2453 115.621 85.6933 113.892 85.6933C112.152 85.6933 109.589 83.5876 108.551 82.2143C107.513 80.841 106.323 81.1157 105.499 82.2143C104.675 83.3129 103.455 85.5407 99.3958 85.5407C95.3369 85.5407 94.0857 83.6791 92.9871 82.3974C91.8884 81.1157 90.7898 81.0241 89.7217 82.2143C85.4187 86.6394 80.3833 85.8764 76.9959 81.9091C76.0651 80.9783 75.4395 80.78 74.4324 81.728C73.4253 82.6761 71.5637 85.5487 67.7185 85.5487C63.8733 85.5487 61.8591 82.5195 61.1878 81.728C60.5164 80.9366 59.9671 79.895 58.7158 81.728C57.4646 83.5611 54.9927 85.5487 51.8009 85.5487C47.7295 85.5487 46.566 83.0366 45.4685 81.728C44.5488 80.6314 43.7705 80.6667 42.9568 81.728C40.7635 84.5581 38.6055 85.2657 36.4476 85.9375C34.2896 86.6092 33.5467 85.9732 32.8392 84.2397C31.2827 79.9946 28.2049 77.6244 28.2049 68.0374C28.2049 55.6557 36.4122 54.0284 39.773 54.0284H55.6569C60.7157 54.0284 62.9444 53.0379 66.482 50.9861C70.0197 48.9342 72.3191 44.6183 75.3615 44.6183Z" fill="#FCB100"/>
<path d="M63.0192 52.8855C61.9999 52.4658 61.2794 51.3 62.5001 50.8468C63.4995 50.2357 64.0183 49.4128 64.6166 48.1312C65.2511 46.7722 65.975 44.8974 67.4563 42.2126C70.3343 36.9961 75.4909 35.1973 80.2277 35.1973H89.4615C91.8599 35.1973 94.3783 34.058 94.3783 31.25V24.4644C94.3783 18.4085 98.5155 16.3099 101.563 16.3099H106.61C110.208 16.3099 113.206 19.3079 113.206 24.4644V43.112C113.206 47.8488 113.625 49.3478 114.405 50.8468C115.184 52.3458 116.803 54.3245 114.405 54.3245C112.006 54.3245 109.69 51.6774 108.551 50.5981C107.412 49.5189 107.03 49.5277 105.711 50.8468C104.392 52.1659 102.173 53.9048 99.235 53.9048C96.297 53.9048 94.4382 52.4058 93.239 50.8468C92.0398 49.2878 91.034 49.0723 89.4615 50.8468C88.0834 52.402 86.2237 53.9048 83.1658 53.9048C80.7194 53.9048 77.8837 51.3123 76.9044 50.293C75.7652 49.1537 74.9825 49.4605 74.1273 50.4761C69.3305 56.1722 64.0385 53.3052 63.0192 52.8855Z" fill="#96C34A"/>
<path d="M78.8848 63.845C78.8848 66.3445 76.8586 68.3708 74.3591 68.3708C71.8595 68.3708 69.8333 66.3445 69.8333 63.845C69.8333 61.3455 71.8595 59.3192 74.3591 59.3192C76.8586 59.3192 78.8848 61.3455 78.8848 63.845Z" fill="#433B6B"/>
</svg>
